<svg width="111" height="111" viewBox="0 0 111 111" fill="none" xmlns="http://www.w3.org/2000/svg">
<g clip-path="url(#clip0_6_28)">
<path d="M49.6274 19.9431L46.6684 35.6691L21.0448 31.2611C21.0448 31.2611 21.9152 26.2014 22.5706 22.3914C23.2261 18.5813 26.846 16.024 30.6561 16.6795C34.4661 17.3349 49.6274 19.9431 49.6274 19.9431Z" fill="#37474F"/>
<path d="M73.5169 21.2664L78.2202 15.75C78.9371 14.9093 78.8358 13.6459 77.9972 12.9293C77.1569 12.2105 75.8951 12.314 75.1765 13.1524L70.232 18.95C67.8253 17.5456 65.1377 16.5232 62.2245 16.022C59.3113 15.5209 56.4366 15.5864 53.6966 16.1075L50.9737 8.9908C50.5786 7.9609 49.4239 7.44163 48.3897 7.83803C47.3579 8.23281 46.8422 9.39013 47.237 10.422L49.8265 17.193C42.6691 19.8582 36.9547 25.8603 34.9403 33.6536L82.0484 41.7575C82.7543 33.7371 79.3742 26.1705 73.5169 21.2664Z" fill="#00E676"/>
<path d="M49.9958 28.124C51.0844 28.3112 52.1186 27.5806 52.3059 26.492C52.4932 25.4034 51.7625 24.3691 50.6739 24.1819C49.5853 23.9946 48.5511 24.7253 48.3638 25.8139C48.1765 26.9024 48.9072 27.9367 49.9958 28.124Z" fill="white"/>
<path d="M69.7062 31.5147C70.7948 31.702 71.8291 30.9713 72.0163 29.8828C72.2036 28.7942 71.473 27.7599 70.3844 27.5726C69.2958 27.3854 68.2615 28.116 68.0743 29.2046C67.887 30.2932 68.6176 31.3275 69.7062 31.5147Z" fill="white"/>
<path d="M89.385 40.9882C88.4113 40.8207 29.9776 30.7684 28.2825 30.4768C24.4725 29.8214 21.9152 26.2014 22.5706 22.3914C22.5703 22.3933 14.071 71.7996 13.4155 75.6096C12.7601 79.4197 15.3174 83.0396 19.1274 83.6951C20.8225 83.9867 87.1286 95.3932 87.1286 95.3932C87.1286 95.3932 94.4414 52.8836 95.0969 49.0736C95.7523 45.2636 93.195 41.6436 89.385 40.9882Z" fill="#448AFF"/>
<path d="M87.0114 54.7855C86.3373 54.6696 85.2947 54.4902 84.0549 54.2769L75.2813 105.278C76.5211 105.491 77.5637 105.67 78.2378 105.786C82.0479 106.442 85.6678 103.884 86.3233 100.074C86.9787 96.2644 95.0969 49.0736 95.0969 49.0736C94.4414 52.8837 90.8215 55.441 87.0114 54.7855Z" fill="#37474F"/>
<path d="M67.894 98.2962L58.5853 64.5922C60.8246 63.502 62.5348 61.4056 62.9881 58.7703C63.6181 55.1081 61.6218 51.6131 58.3831 50.1488L59.1094 45.9268C59.2966 44.8388 58.5655 43.8039 57.4775 43.6167C56.3894 43.4295 55.3545 44.1606 55.1673 45.2487L54.441 49.4706C50.8993 49.7685 47.8497 52.3955 47.2197 56.0577C46.7664 58.693 47.6777 61.2404 49.4239 63.0161L29.3982 91.6576C28.257 93.2898 28.3154 95.5808 29.7427 96.9689C31.5629 98.7392 34.4414 98.4043 35.833 96.4134L48.33 78.5414C49.988 76.1702 53.66 76.8019 54.4303 79.5909L60.2366 100.612C60.6609 102.156 61.9343 103.235 63.4146 103.49C64.2247 103.629 65.0979 103.52 65.9221 103.106C67.6502 102.238 68.4093 100.161 67.894 98.2962ZM55.7821 53.4719C57.9561 53.8459 59.42 55.9181 59.046 58.0922C58.672 60.2662 56.5998 61.7301 54.4258 61.3561C52.2517 60.9821 50.7878 58.9099 51.1618 56.7359C51.5358 54.5618 53.608 53.0979 55.7821 53.4719Z" fill="#37474F"/>
</g>
<defs>
<clipPath id="clip0_6_28">
<rect width="96" height="96" fill="white" transform="translate(16.2757) rotate(9.76098)"/>
</clipPath>
</defs>
</svg>
