<svg width="116" height="116" viewBox="0 0 116 116" fill="none" xmlns="http://www.w3.org/2000/svg">
<g clip-path="url(#clip0_6_10)">
<path d="M99.97 29.0428L33.87 13.0807L23.7403 80.5892L49.0801 94.9383L78.1756 93.7344L99.97 29.0428Z" fill="#E65100"/>
<path d="M65.5116 26.8941L50.5355 88.9115L73.8119 87.9484L92.146 33.3259L65.5116 26.8941Z" fill="#FF6D00"/>
<path d="M57.5305 59.9441L59.4084 52.1677L76.1278 56.2051L69.368 78.2338L52.7889 79.5797L54.7606 71.4144L63.3888 70.6175L66.0846 62.0098L57.5305 59.9441ZM78.589 48.5695L81.0501 40.9339L63.1642 36.6147L61.2863 44.3912L78.589 48.5695Z" fill="white"/>
<path d="M54.7607 71.4144L52.7889 79.5797L38.651 70.8162L40.4555 59.9358L48.2319 61.8136L47.4471 66.7678L54.7607 71.4144ZM51.7602 42.0908L61.2864 44.3912L63.1643 36.6147L45.4728 32.3425L41.2 56.0006L57.5306 59.9441L59.4085 52.1677L50.4655 50.0081L51.7602 42.0908Z" fill="#EEEEEE"/>
</g>
<defs>
<clipPath id="clip0_6_10">
<rect width="96" height="96" fill="white" transform="translate(22.6085 0.0738525) rotate(13.5761)"/>
</clipPath>
</defs>
</svg>
