<svg width="80" height="80" viewBox="0 0 80 80" fill="none" xmlns="http://www.w3.org/2000/svg">
<path d="M40 57.8C17.196 57.8 0 50.34 0 40C0 29.66 17.196 22 40 22C62.804 22 80 29.66 80 40C80 50.34 62.804 57.8 40 57.8ZM40 27.864C20.542 27.864 5.75 34.396 5.75 40.126C5.75 45.856 20.542 52.136 40 52.136C59.458 52.136 74.25 45.604 74.25 39.874C74.25 34.144 59.458 27.864 40 27.864Z" fill="#4E7AB5"/>
<path d="M24.804 76C24.802 76 24.804 76 24.804 76C22.942 76 21.242 75.568 19.748 74.716C17.308 73.322 15.558 70.86 14.684 67.592C12.392 59.028 16.09 44.628 24.11 30.904C33.52 14.814 46.014 4.006 55.198 4.006C57.058 4.006 58.758 4.438 60.252 5.29C62.688 6.68 64.44 9.14 65.314 12.406C67.608 20.97 63.908 35.372 55.884 49.096C46.482 65.188 33.99 76 24.804 76ZM55.198 10.006C49.422 10.006 38.38 18.392 29.29 33.932C21.044 48.044 18.626 59.75 20.482 66.04C20.984 67.738 21.692 68.916 22.724 69.504C27.446 72.2 40.342 63.804 50.706 46.07C58.956 31.956 61.626 20.5 59.518 13.96C58.976 12.278 58.31 11.09 57.28 10.504C56.694 10.168 56.012 10.006 55.198 10.006Z" fill="#4E7AB5"/>
<path d="M55.198 75.994C46.004 75.992 33.512 65.184 24.11 49.096C16.09 35.372 12.392 20.97 14.684 12.408C15.558 9.14 17.308 6.678 19.746 5.286C21.242 4.432 22.942 4 24.8 4C33.99 4 46.48 14.812 55.884 30.904C63.906 44.626 67.604 59.028 65.312 67.594C64.436 70.86 62.686 73.32 60.252 74.71C58.758 75.562 57.056 75.994 55.198 75.994ZM24.8 10C23.986 10 23.306 10.164 22.72 10.496C21.69 11.084 20.972 12.258 20.48 13.96C18.624 20.376 21.042 31.958 29.288 46.07C38.37 61.608 49.414 69.994 55.196 69.994C56.012 69.994 56.692 69.83 57.278 69.496C58.306 68.912 59.044 67.744 59.514 66.04C61.248 59.748 58.952 48.04 50.704 33.93C41.622 18.388 30.58 10 24.8 10Z" fill="#4E7AB5"/>
<path d="M47 40C47 43.87 43.87 47 40 47C36.13 47 33 43.87 33 40C33 36.13 36.13 33 40 33C43.87 33 47 36.13 47 40Z" fill="#8BB7F0"/>
<path d="M40 48C35.588 48 32 44.412 32 40C32 35.588 35.588 32 40 32C44.412 32 48 35.588 48 40C48 44.412 44.412 48 40 48ZM40 34C36.692 34 34 36.692 34 40C34 43.308 36.692 46 40 46C43.308 46 46 43.308 46 40C46 36.692 43.308 34 40 34Z" fill="#4E7AB5"/>
<path d="M40 56.136C18.692 56.136 2 49.048 2 40C2 30.952 18.692 23.864 40 23.864C61.308 23.864 78 30.952 78 40C78 49.048 61.308 56.136 40 56.136ZM40 25.864C20.486 25.864 4 32.338 4 40C4 47.662 20.486 54.136 40 54.136C59.514 54.136 76 47.664 76 40C76 32.336 59.514 25.864 40 25.864Z" fill="#8BB7F0"/>
<path d="M24.804 74C24.802 74 24.804 74 24.804 74C23.294 74 21.928 73.656 20.738 72.978C18.746 71.84 17.36 69.854 16.614 67.074C14.452 59 18.072 45.198 25.834 31.912C34.758 16.66 46.832 6.006 55.198 6.006C56.706 6.006 58.074 6.35 59.262 7.028C61.252 8.164 62.638 10.148 63.384 12.924C65.546 20.998 61.926 34.8 54.16 48.088C45.242 63.344 33.172 74 24.804 74ZM55.198 8.006C47.63 8.006 36.008 18.484 27.564 32.922C20.174 45.572 16.55 59.088 18.548 66.558C19.15 68.804 20.22 70.378 21.732 71.242C22.614 71.744 23.646 72 24.802 72C32.372 72 43.992 61.52 52.43 47.078C59.824 34.426 63.45 20.908 61.448 13.442C60.848 11.2 59.778 9.626 58.268 8.766C57.386 8.262 56.354 8.006 55.198 8.006Z" fill="#8BB7F0"/>
<path d="M55.198 73.994C46.824 73.992 34.75 63.34 25.836 48.088C18.072 34.802 14.454 21 16.616 12.926C17.36 10.146 18.746 8.16 20.74 7.022C21.928 6.344 23.294 6 24.8 6C33.17 6 45.242 16.656 54.158 31.912C61.924 45.196 65.542 58.998 63.378 67.076C62.636 69.854 61.25 71.838 59.26 72.972C58.072 73.65 56.706 73.994 55.198 73.994ZM24.8 8C23.646 8 22.612 8.256 21.73 8.758C20.218 9.622 19.148 11.196 18.546 13.442C16.548 20.91 20.172 34.428 27.562 47.078C36 61.514 47.624 71.992 55.198 71.994C56.354 71.994 57.388 71.738 58.27 71.234C59.778 70.374 60.848 68.8 61.448 66.558C63.448 59.088 59.824 45.57 52.432 32.922C43.992 18.482 32.374 8 24.8 8Z" fill="#8BB7F0"/>
</svg>
