<svg width="108" height="108" viewBox="0 0 108 108" fill="none" xmlns="http://www.w3.org/2000/svg">
<path d="M89.6631 45.7813L53.3244 17.4084C52.2097 16.5381 50.7469 16.1136 49.3574 16.2847C47.9679 16.4557 46.6517 17.2222 45.7814 18.3369L39.689 26.1397L48.8294 33.2765C49.5746 32.7817 50.3441 32.4855 51.3366 32.3633C54.7112 31.9479 57.6093 34.2108 58.0247 37.5853C58.1469 38.5778 58.0462 39.3962 57.7469 40.2391L66.6644 47.2018C67.4095 46.7071 68.1791 46.4108 69.1716 46.2886C72.5461 45.8733 75.4443 48.1361 75.8597 51.5106C76.2751 54.8852 74.0122 57.7834 70.6377 58.1987C67.2631 58.6141 64.365 56.3513 63.9496 52.9767C63.8274 51.9842 63.9281 51.1658 64.2274 50.3229L55.31 43.3602C55.1114 43.3847 54.9374 43.6076 54.7389 43.632L57.2801 64.2762C59.7599 64.777 61.6167 66.7651 61.9343 69.3456C62.3497 72.7201 60.0868 75.6183 56.7123 76.0337C53.3378 76.4491 50.4396 74.1862 50.0242 70.8117C49.7066 68.2311 51.0258 65.8521 53.3101 64.7649L50.7444 43.9222C48.2647 43.4215 46.4079 41.4334 46.0902 38.8529C45.968 37.8604 46.0688 37.0419 46.3681 36.1991L37.2277 29.0623L17.4085 54.6756C16.5381 55.7903 16.1137 57.2531 16.2847 58.6426C16.4558 60.0321 17.2223 61.3483 18.337 62.2187L54.6757 90.5916C55.7903 91.4619 57.2532 91.8864 58.6427 91.7153C60.0322 91.5443 61.3484 90.7777 62.2187 89.663L90.5916 53.3244C91.462 52.2097 91.8864 50.7469 91.7154 49.3574C91.5443 47.9678 90.7778 46.6516 89.6631 45.7813Z" fill="#FF3D00"/>
</svg>
