<svg width="42" height="42" viewBox="0 0 42 42" fill="none" xmlns="http://www.w3.org/2000/svg">
<path d="M36.4613 11.795C36.1113 12.0225 35.6126 12.2325 35.4026 12.4688C35.3239 12.5475 35.2801 12.635 35.2976 12.7225V13.6238L35.0351 14.5075L34.7726 15.3825L34.4839 16.345L33.8889 18.3138L33.3114 20.2563L32.8739 21.7175C32.8739 21.945 32.8651 22.1725 32.8476 22.3913C32.7864 23.2313 32.6114 24.0363 32.3314 24.7888C32.1651 25.2525 31.9639 25.6988 31.7189 26.1188C31.6314 26.285 31.5264 26.4513 31.4214 26.6088C31.0714 27.16 30.6514 27.6675 30.1876 28.1138C29.8288 28.4725 29.4351 28.805 29.0064 29.085C29.0064 29.085 29.0063 29.085 28.9976 29.085C28.9276 29.1463 28.8489 29.1987 28.7613 29.2425C28.4901 29.4263 28.2013 29.5838 27.9039 29.7238C27.7026 29.8288 27.5014 29.9163 27.2914 29.995C27.2476 30.0212 27.1951 30.0387 27.1514 30.0562C26.6526 30.2925 26.0751 30.45 25.4976 30.5288C25.4626 30.5375 25.4364 30.5375 25.4014 30.5463C25.0514 30.6075 24.7101 30.66 24.3601 30.6863C24.2026 30.7038 24.0364 30.7125 23.8789 30.7125L23.2576 30.6775L20.2651 30.52C20.2651 30.5113 20.2563 30.52 20.2563 30.52L18.7513 30.4413C18.6376 30.4413 18.5151 30.4412 18.4014 30.4325C17.9288 30.415 17.4738 30.3625 17.0188 30.2663C17.0101 30.2663 17.0101 30.2663 17.0101 30.2663C16.1788 30.1088 15.3826 29.8288 14.6388 29.4525C14.2276 29.2425 13.8251 29.0063 13.4488 28.735C13.2913 28.6213 13.1426 28.4988 12.9938 28.3675C12.5738 28.0175 12.1976 27.6413 11.8476 27.2563C11.7951 27.2038 11.7513 27.1513 11.7076 27.0988C11.6551 27.0463 11.6026 26.985 11.5588 26.9325C11.2263 26.5125 10.9463 26.0838 10.7188 25.6288C10.5088 25.2263 10.3426 24.7975 10.2113 24.325C10.1588 24.1588 10.1151 24.0013 10.0801 23.8263C10.0713 23.8175 10.0626 23.8 10.0626 23.7825C9.9751 23.4238 9.89635 23.0475 9.8526 22.6713C9.8001 22.3825 9.77385 22.0938 9.77385 21.7963C9.75635 21.6825 9.75635 21.56 9.75635 21.4463L11.4276 18.865L13.0638 16.345L13.8076 15.1988L14.4813 14.1663L14.7088 13.8075V12.9063C14.7263 12.705 14.7351 12.495 14.7263 12.3025C14.7176 11.69 14.5951 11.095 14.3938 10.5263C14.2013 9.9225 13.9301 9.35375 13.6501 8.82875C13.3176 8.225 12.9676 7.6825 12.6788 7.1925C12.2501 6.475 11.9526 5.88875 12.0313 5.4775C12.6613 5.32875 13.3263 5.25 14.0001 5.25H28.0001C31.6576 5.25 34.8076 7.525 36.1114 10.7275C36.2514 11.0688 36.3738 11.4275 36.4613 11.795Z" fill="#304FFE"/>
<path d="M36.75 14V14.2362L35.5425 14.9362L34.7725 15.3825L33.9237 15.8725L32.2262 16.8612L30.5637 17.8238L28.8662 18.8038L28.1925 19.1975C28.1925 19.6175 28.0875 20.0025 27.895 20.3525C27.6237 20.86 27.1687 21.28 26.5912 21.6388C26.005 21.9975 25.2875 22.2862 24.4825 22.4963C24.4825 22.4963 24.4825 22.4875 24.4737 22.4963C21.3587 23.3012 17.1062 22.9338 15.0412 21.3938C14.4637 20.965 14.0612 20.44 13.8862 19.8363C13.8337 19.635 13.8075 19.4163 13.8075 19.1975V12.9062C13.8162 12.775 13.7287 12.6438 13.5712 12.5125C13.0987 12.1363 11.9875 11.7775 10.745 11.4188C9.77373 11.1475 8.73248 10.8763 7.85748 10.6137C7.16623 10.4037 6.57998 10.1937 6.22998 9.9925C6.38748 9.68625 6.57123 9.38 6.76373 9.09125C7.98873 7.2975 9.86123 5.97625 12.0312 5.4775C12.6612 5.32875 13.3262 5.25 14 5.25H23.45C28.1487 6.0725 32.48 7.98875 36.1112 10.7275C36.2512 11.0688 36.3737 11.4275 36.4612 11.795C36.6187 12.3725 36.715 12.9675 36.7412 13.5887C36.75 13.72 36.75 13.86 36.75 14Z" fill="#4928F4"/>
<path d="M36.7499 14V17.8587L36.5574 18.4537L35.9012 20.4925L35.2187 22.5925L34.8599 23.7125L34.5274 24.7537L34.2037 25.7425L33.8887 26.7225L33.7224 27.2387L33.5037 27.9212C33.5037 28.5862 33.4862 29.1725 33.4424 29.6712C33.4337 29.7237 33.4249 29.7762 33.4249 29.8287C33.3724 30.2925 33.3024 30.6862 33.1887 31.0187C33.1799 31.0712 33.1624 31.1237 33.1449 31.1675C32.9174 31.7975 32.5762 32.2 32.0687 32.4625C31.9462 32.5325 31.8062 32.585 31.6574 32.6375C31.1937 32.795 30.6074 32.8737 29.8899 32.9175C29.3649 32.9525 28.7612 32.9612 28.0787 32.9612H27.4749L26.4337 32.9175L26.2499 32.9087L24.3512 32.83L22.4262 32.7512L16.0824 32.4887L14.4374 32.4187H14.2099C13.5274 32.41 12.9412 32.3662 12.4337 32.2962C11.6987 32.1825 11.1299 31.99 10.7012 31.7012C10.0887 31.3075 9.72993 30.73 9.51993 29.925C9.46743 29.7325 9.42368 29.5312 9.39743 29.3125C9.30993 28.805 9.26618 28.2187 9.23993 27.5625C9.23993 27.4312 9.23993 27.3 9.23118 27.16C9.22243 27.1512 9.23118 27.1512 9.23118 27.1512V26.6437C9.22243 26.39 9.22243 26.1275 9.22243 25.8562L9.26618 24.4475L9.29243 23.4412L9.32743 22.2687V22.1025L9.38868 19.95L9.44993 17.7975L9.51118 15.7762L9.56368 13.79L9.58118 13.265C9.58118 12.9937 8.66243 12.8362 7.63868 12.705C6.82493 12.6 5.93243 12.5037 5.39868 12.3812C5.44243 12.18 5.48618 11.9787 5.53868 11.7862C5.69618 11.1562 5.93243 10.5612 6.22993 9.99249C6.38743 9.68624 6.57118 9.37999 6.76368 9.09124C8.65368 8.25999 10.6224 7.61249 12.6787 7.19249C14.4812 6.81624 16.3624 6.61499 18.3049 6.61499C24.7449 6.61499 30.6949 8.79374 35.4024 12.4687C35.8574 12.8187 36.3037 13.195 36.7412 13.5887C36.7499 13.72 36.7499 13.86 36.7499 14Z" fill="#6200EA"/>
<path d="M36.75 16.0737V20.0462L36.2688 20.9737L35.35 22.7674L34.86 23.7124L34.4138 24.5787L34.2213 24.9549C34.2213 25.2262 34.2213 25.4887 34.2038 25.7424C34.2038 26.1187 34.1863 26.4774 34.16 26.8099C34.125 27.2037 34.0725 27.5624 34.02 27.8949C33.8888 28.5862 33.705 29.1812 33.4425 29.6712C33.4075 29.7324 33.3725 29.7937 33.3375 29.8462C33.2412 30.0037 33.1275 30.1524 33.005 30.2924C32.8475 30.4849 32.6725 30.6512 32.4713 30.7912C32.1737 31.0187 31.8237 31.2024 31.4212 31.3424C30.9225 31.5262 30.345 31.6487 29.6625 31.7187C29.2163 31.7624 28.7263 31.7887 28.1925 31.7887L27.825 31.8062L26.005 31.9112H25.9963L24.0625 32.0249L22.0938 32.1387L19.3812 32.2962L16.0825 32.4887L15.6012 32.5149C15.155 32.5149 14.735 32.4887 14.3325 32.4362C14.2887 32.4274 14.2537 32.4187 14.21 32.4187C13.615 32.3224 13.0725 32.1649 12.5825 31.9462C11.9875 31.6837 11.4712 31.3337 11.0337 30.9137C10.6487 30.5374 10.3162 30.1087 10.045 29.6274C9.98375 29.5137 9.9225 29.4087 9.87 29.2862C9.6075 28.7699 9.3975 28.1924 9.24 27.5624C9.21375 27.4574 9.1875 27.3437 9.17 27.2299C9.1175 27.0287 9.07375 26.8187 9.0475 26.5999C8.95125 26.0399 8.89875 25.4449 8.8725 24.8237V24.8149C8.86375 24.5612 8.855 24.3162 8.855 24.0537L8.42625 23.0299L8.365 22.8724L8.3125 22.7412L7.65625 21.1749L7.55125 20.9212L6.92125 19.4074L6.22125 17.7187C6.22125 17.7187 6.22125 17.7187 6.2125 17.7187L5.50375 16.0124L5.25 15.3912V13.9999C5.25 13.4487 5.3025 12.9062 5.39875 12.3812C5.4425 12.1799 5.48625 11.9787 5.53875 11.7862C6.2825 11.3574 7.06125 10.9637 7.8575 10.6137C9.6775 9.79994 11.6288 9.19619 13.65 8.82869C15.155 8.55744 16.7213 8.40869 18.305 8.40869C24.7013 8.40869 30.5025 10.7274 35.035 14.5074C35.21 14.6474 35.3762 14.7874 35.5425 14.9362C35.9537 15.2949 36.3563 15.6712 36.75 16.0737Z" fill="#673AB7"/>
<path d="M36.75 18.6813V23.1788L36.2513 24.2201L35.3062 26.1888L35.2975 26.2151C35.2975 26.5913 35.28 26.9326 35.2537 27.2388C35.1663 28.2451 34.9213 28.8838 34.5188 29.2776C34.23 29.5751 33.8713 29.7413 33.425 29.8288C33.3988 29.8376 33.3637 29.8376 33.3375 29.8463C33.1975 29.8726 33.0487 29.8901 32.8913 29.8901C32.3488 29.9426 31.71 29.9076 30.975 29.8551C30.8963 29.8551 30.8088 29.8463 30.7213 29.8376C30.1875 29.8026 29.6188 29.7676 28.9888 29.7413C28.6475 29.7326 28.2887 29.7238 27.9212 29.7238H27.9037L27.02 29.7938H27.0113L25.025 29.9338L22.7588 30.1088L22.4262 30.1351L19.775 30.3276L18.4013 30.4326L17.045 30.5288C16.8087 30.5288 16.5813 30.5288 16.3538 30.5201C16.3538 30.5201 16.345 30.5113 16.345 30.5201C15.3562 30.5026 14.4725 30.4413 13.685 30.2926C12.9588 30.1701 12.32 29.9776 11.7775 29.6888C11.2175 29.4176 10.7537 29.0326 10.3775 28.5426C10.0187 28.0613 9.75625 27.4576 9.59 26.7313C9.59 26.7226 9.59 26.7226 9.59 26.7226C9.4675 26.1363 9.3975 25.4538 9.3975 24.6838L9.26625 24.4476L8.4875 23.0563L8.37375 22.8638L8.3125 22.7413L7.49875 21.2976L7.09625 20.5713L6.58875 19.6701L5.71375 18.1038L5.25 17.2813V14.0613C6.02 13.5538 6.81625 13.1076 7.63875 12.7051C8.63625 12.1976 9.66875 11.7688 10.745 11.4188C11.9175 11.0338 13.1425 10.7276 14.3938 10.5263C15.6625 10.3163 16.9663 10.2113 18.305 10.2113C24.255 10.2113 29.715 12.3376 33.9237 15.8726C34.1163 16.0213 34.3 16.1876 34.4837 16.3451C35.2188 17.0013 35.9187 17.7101 36.5575 18.4538C36.6275 18.5326 36.6975 18.6026 36.75 18.6813Z" fill="#8E24AA"/>
<path d="M36.75 21.6213V27.9475C36.54 27.825 36.2513 27.6763 35.8925 27.5188C35.7 27.4225 35.4813 27.3263 35.2537 27.2388C34.9213 27.09 34.5625 26.95 34.16 26.81C34.0725 26.775 33.985 26.7488 33.8888 26.7225C33.7312 26.6613 33.565 26.6088 33.3987 26.5563C32.8825 26.3988 32.3137 26.25 31.7188 26.1188C31.4912 26.075 31.255 26.0313 31.0188 25.9963C30.2575 25.865 29.4438 25.7863 28.595 25.7775C28.525 25.7688 28.4463 25.7688 28.3763 25.7688L26.1275 25.7863L23.065 25.8038H23.0562L16.5025 25.8563C14.42 25.8563 13.1425 26.355 12.3725 26.5563C12.3725 26.5563 12.3637 26.5563 12.3637 26.565C11.55 26.775 11.2962 26.6438 11.2262 25.2175C11.2087 24.8238 11.2 24.3163 11.2 23.695L10.71 23.3188L9.8525 22.6713L9.3275 22.2688L9.2225 22.19L7.77 21.0875L7.55125 20.9213L7.09625 20.5713L6.25625 19.9413L5.25 19.1713V16.1963C5.3375 16.1263 5.41625 16.065 5.50375 16.0125C6.7725 15.1375 8.12875 14.3938 9.56375 13.79C10.8413 13.2475 12.1888 12.8188 13.5712 12.5125C13.9475 12.4338 14.3325 12.355 14.7262 12.3025C15.89 12.1013 17.0887 12.005 18.305 12.005C23.5638 12.005 28.3938 13.8338 32.2263 16.8613C32.8038 17.3163 33.3638 17.7975 33.8888 18.3138C34.6062 18.9963 35.28 19.7225 35.9012 20.4925C36.0237 20.65 36.1462 20.8075 36.2688 20.9738C36.435 21.1838 36.5925 21.4025 36.75 21.6213Z" fill="#C2185B"/>
<path d="M36.75 25.13V28C36.75 28.5687 36.6975 29.1287 36.5925 29.6712C36.435 30.4762 36.1637 31.2462 35.7962 31.9637C35.6038 32.0075 35.385 32.0075 35.14 31.9725C34.5887 31.8762 33.9413 31.5875 33.2413 31.2112C33.2063 31.2025 33.1713 31.185 33.145 31.1675C32.9263 31.0537 32.6988 30.9312 32.4713 30.7912C32.0075 30.5375 31.5175 30.2575 31.0275 29.995C30.9225 29.9425 30.8175 29.89 30.7213 29.8375C30.1613 29.5487 29.5838 29.2862 29.0063 29.085C29.0063 29.085 29.0063 29.085 28.9975 29.085C28.875 29.0412 28.7438 28.9975 28.6125 28.9625C28.1138 28.8225 27.6062 28.735 27.1162 28.735L26.1537 28.455L21.8925 27.2212C21.8925 27.2212 21.8925 27.2212 21.8838 27.2212L19.2675 26.46H19.2587L18.1212 26.1275C14.8312 26.1275 12.81 27.5275 11.83 26.9937C11.445 26.7925 11.2175 26.285 11.1387 25.2875C11.1125 25.0075 11.1037 24.6925 11.1037 24.325L10.08 23.8262L10.0363 23.8087H10.0275L9.2925 23.4412L8.4875 23.0562L8.42625 23.03L8.2775 22.9512L6.5625 22.12L5.25 21.4812V18.48C5.39875 18.3487 5.55625 18.2262 5.71375 18.1037C5.88 17.9725 6.04625 17.85 6.2125 17.7187C6.22125 17.7187 6.22125 17.7187 6.22125 17.7187C7.25375 16.975 8.3475 16.3187 9.51125 15.7762C10.8675 15.1287 12.3112 14.63 13.8075 14.3062C14.0262 14.2537 14.2537 14.2012 14.4812 14.1662C15.7237 13.93 17.0013 13.8075 18.305 13.8075C22.9163 13.8075 27.1513 15.3037 30.5638 17.8237C31.5525 18.5587 32.4713 19.3725 33.3112 20.2562C34.0025 20.9825 34.6413 21.77 35.2188 22.5925C35.2625 22.6537 35.3063 22.715 35.35 22.7675C35.6738 23.24 35.9713 23.7212 36.2513 24.22C36.435 24.5175 36.5925 24.8237 36.75 25.13Z" fill="#D81B60"/>
<path d="M36.5925 29.6712C36.435 30.4762 36.1637 31.2462 35.7962 31.9637C35.63 32.2874 35.4462 32.5937 35.245 32.8912C35.1225 33.0749 34.9913 33.2499 34.86 33.4162C34.545 33.2937 34.0812 33.1187 33.5125 32.9262C33.5125 32.9262 33.5125 32.9262 33.5125 32.9174C33.0837 32.7687 32.5938 32.6112 32.0688 32.4624C31.92 32.4187 31.7713 32.3749 31.6138 32.3312C30.9925 32.1649 30.345 32.0162 29.715 31.9287C29.19 31.8412 28.6738 31.7887 28.1925 31.7887L27.79 31.6749H27.7812L25.6637 31.0624L24.36 30.6862L22.9075 30.2662H22.8988L22.4262 30.1349L16.7125 28.4899L15.0675 28.0174L13.8425 27.7287L11.8475 27.2562L11.6025 27.1949C11.6025 27.1949 11.6025 27.1949 11.5938 27.1949L9.59 26.7312C9.59 26.7224 9.59 26.7224 9.59 26.7224L9.23125 26.6437L9.0475 26.5999L7.58625 26.2587L7.42 26.2149L6.1775 25.1912L5.25 24.4124V20.8424C5.57375 20.5274 5.90625 20.2299 6.25625 19.9412C6.36125 19.8449 6.475 19.7574 6.58875 19.6699C6.69375 19.5824 6.8075 19.4949 6.92125 19.4074C7.7175 18.8037 8.5575 18.2612 9.45 17.7974C10.5875 17.1849 11.795 16.6949 13.0638 16.3449C13.3088 16.2662 13.5538 16.1962 13.8075 16.1437C15.2425 15.7849 16.7475 15.6012 18.305 15.6012C22.2162 15.6012 25.8563 16.7824 28.8663 18.8037C30.3625 19.8099 31.71 21.0174 32.8475 22.3912C33.425 23.0824 33.95 23.8087 34.4138 24.5787C34.4575 24.6399 34.4925 24.6924 34.5275 24.7537C34.8075 25.2174 35.07 25.6987 35.3062 26.1887C35.525 26.6262 35.7175 27.0637 35.8925 27.5187C36.1725 28.2187 36.4 28.9362 36.5925 29.6712Z" fill="#F50057"/>
<path d="M35.245 32.8913C35.1225 33.0751 34.9913 33.2501 34.86 33.4163C34.475 33.8976 34.055 34.3351 33.5825 34.7201C33.1713 35.0613 32.7338 35.3676 32.27 35.6301C32.095 35.5863 31.92 35.5338 31.7362 35.4638C31.1588 35.2626 30.555 34.9301 29.995 34.5801C29.155 34.0463 28.4287 33.4688 28.105 33.2063C27.9825 33.1013 27.9212 33.0488 27.9212 33.0488L26.4338 32.9176L26.25 32.9001L24.325 32.7338L22.33 32.5588L19.3812 32.2963L14.7087 31.8851L14.6913 31.8763L13.0462 31.0801L11.3837 30.2751L10.045 29.6276L9.75625 29.4876L9.3975 29.3126L8.155 28.7088L6.50125 27.9126L5.985 27.6588L5.25 27.4313V23.5201C5.66125 23.0301 6.09875 22.5663 6.5625 22.1201C6.86 21.8401 7.175 21.5601 7.49875 21.2976C7.55125 21.2538 7.60375 21.2101 7.65625 21.1751C7.69125 21.1313 7.735 21.1051 7.77 21.0876C8.28625 20.6676 8.82875 20.2913 9.38875 19.9501C10.0362 19.5388 10.7188 19.1713 11.4275 18.8651C12.1888 18.5238 12.985 18.2351 13.8075 18.0163C15.2337 17.6138 16.7475 17.4038 18.305 17.4038C21.875 17.4038 25.1737 18.4888 27.895 20.3526C29.6362 21.5426 31.1413 23.0476 32.3313 24.7888C32.725 25.3488 33.075 25.9438 33.3987 26.5563C33.5125 26.7838 33.6263 27.0113 33.7225 27.2388C33.8275 27.4576 33.9238 27.6763 34.02 27.8951C34.2038 28.3501 34.37 28.8051 34.5188 29.2776C34.7987 30.1526 35.0087 31.0451 35.14 31.9726C35.1838 32.2788 35.2187 32.5851 35.245 32.8913Z" fill="#FF1744"/>
<path d="M33.5912 34.4925C33.5912 34.5625 33.5912 34.6413 33.5825 34.72C33.1712 35.0613 32.7337 35.3675 32.27 35.63C32.0775 35.735 31.885 35.84 31.6837 35.9275C31.4825 36.0238 31.2812 36.1113 31.0712 36.19C30.7737 36.0325 30.3713 35.84 29.9425 35.6563C29.3387 35.385 28.6825 35.14 28.175 35.0613C28.0525 35.035 27.9387 35.0263 27.8337 35.0263L26.3987 34.8425H26.3812L24.5962 34.6063L22.7937 34.37L21.9537 34.265L15.3387 33.4075C14.91 33.4075 14.455 33.3813 13.9825 33.32C13.405 33.2675 12.8012 33.18 12.1975 33.0575C11.6025 32.9525 10.9987 32.8125 10.4212 32.6638C9.8175 32.5238 9.2225 32.3575 8.67125 32.2C8.0325 32.0075 7.4375 31.8238 6.93875 31.6575C6.5275 31.5263 6.1775 31.4038 5.90625 31.3075C5.74875 30.9313 5.6175 30.5375 5.52125 30.135C5.3375 29.4525 5.25 28.735 5.25 28V26.5388C5.53 26.075 5.83625 25.62 6.1775 25.1913C6.79875 24.3688 7.5075 23.6163 8.2775 22.9513C8.30375 22.9163 8.33875 22.89 8.365 22.8725L8.37375 22.8638C8.645 22.6188 8.925 22.4 9.2225 22.19C9.2575 22.155 9.2925 22.1288 9.3275 22.1025C9.4675 21.9975 9.61625 21.8925 9.77375 21.7963C11.025 20.9475 12.4075 20.2825 13.8862 19.8363C15.2862 19.4163 16.765 19.1975 18.305 19.1975C21.3587 19.1975 24.2112 20.0988 26.5912 21.6388C28.35 22.7675 29.8637 24.255 31.0187 25.9963C31.1587 26.1975 31.29 26.3988 31.4212 26.6088C32.025 27.6325 32.5237 28.735 32.8912 29.89C32.935 30.0213 32.97 30.1525 33.005 30.2925C33.075 30.5288 33.1362 30.7738 33.1887 31.0188C33.2062 31.08 33.2237 31.1413 33.2412 31.2113C33.3638 31.7625 33.4512 32.34 33.5125 32.9175C33.5125 32.9263 33.5125 32.9263 33.5125 32.9263C33.565 33.4425 33.5912 33.9675 33.5912 34.4925Z" fill="#FF5722"/>
<path d="M31.7887 34.4925C31.7887 34.7987 31.7712 35.1312 31.7362 35.4637C31.7187 35.6213 31.7012 35.7788 31.6837 35.9275C31.4825 36.0238 31.2812 36.1113 31.0712 36.19C30.6775 36.3388 30.275 36.4613 29.8637 36.5488C29.5837 36.61 29.295 36.6625 29.0062 36.6888H28.9975C28.7262 36.5225 28.4112 36.3213 28.0875 36.0938C27.5012 35.6825 26.8887 35.2188 26.3987 34.8425C26.39 34.8338 26.39 34.8338 26.3812 34.825C25.865 34.4313 25.4975 34.1337 25.4975 34.1337L24.57 34.1687L22.785 34.23L21.9537 34.265L18.6112 34.3875L15.785 34.4925C15.6012 34.5012 15.3825 34.5012 15.1112 34.4925H15.1025C14.735 34.4837 14.2975 34.4575 13.8162 34.4138C13.2562 34.37 12.6437 34.3175 12.0225 34.2563C11.4187 34.1863 10.8062 34.1163 10.22 34.0463C9.57249 33.9763 8.95999 33.8975 8.43499 33.8275C8.02374 33.775 7.66499 33.7312 7.37624 33.6962C7.13124 33.4162 6.91249 33.1275 6.70249 32.8125C6.38749 32.34 6.11624 31.8412 5.90624 31.3075C5.74874 30.9312 5.61749 30.5375 5.52124 30.135C5.77499 29.3562 6.10749 28.6213 6.50124 27.9125C6.81624 27.335 7.18374 26.7838 7.58624 26.2588C7.97999 25.7425 8.40874 25.2613 8.87249 24.8238V24.815C9.00374 24.6838 9.13499 24.5613 9.26624 24.4475C9.51124 24.22 9.76499 24.01 10.0275 23.8087H10.0362C10.045 23.7912 10.0537 23.7913 10.0625 23.7825C10.2725 23.6163 10.4912 23.4675 10.71 23.3187C12.005 22.435 13.4662 21.7788 15.0412 21.3938C16.0825 21.14 17.1762 21 18.305 21C20.5275 21 22.6275 21.5337 24.4737 22.4962H24.4825C26.0662 23.31 27.4662 24.43 28.595 25.7775C29.2162 26.495 29.75 27.2825 30.1875 28.1138C30.4937 28.6738 30.7562 29.26 30.975 29.855C30.9925 29.9075 31.01 29.9512 31.0275 29.995C31.1762 30.4325 31.3075 30.8875 31.4212 31.3425C31.5 31.6663 31.5612 31.9988 31.6137 32.3313C31.6312 32.4363 31.6487 32.5325 31.6575 32.6375C31.745 33.2413 31.7887 33.8625 31.7887 34.4925Z" fill="#FF6F00"/>
<path d="M29.9949 34.4925V34.58C29.9949 34.8775 29.9686 35.2537 29.9424 35.6562C29.9161 35.9537 29.8899 36.26 29.8636 36.5487C29.5836 36.61 29.2949 36.6625 29.0061 36.6887H28.9974C28.6649 36.7325 28.3411 36.75 27.9999 36.75H26.4686L26.1361 36.6537L24.4124 36.1287L22.6624 35.6037L18.6111 34.3875L16.8611 33.8625C16.8611 33.8625 16.1349 34.1512 15.1111 34.4925H15.1024C14.7086 34.6237 14.2799 34.7637 13.8249 34.9037C13.2561 35.07 12.6524 35.2362 12.0574 35.3675C11.4449 35.5075 10.8411 35.6125 10.2986 35.6562C10.1324 35.6737 9.96614 35.6825 9.81739 35.6825C9.32739 35.4112 8.85489 35.0875 8.42614 34.7287C8.04989 34.4137 7.69989 34.0725 7.37614 33.6962C7.13114 33.4162 6.91239 33.1275 6.70239 32.8125C6.76364 32.4187 6.83364 32.0337 6.93864 31.6575C7.20114 30.6162 7.61239 29.6187 8.15489 28.7087C8.45239 28.1925 8.78489 27.6937 9.16989 27.23C9.17864 27.2037 9.20489 27.1775 9.23114 27.16C9.22239 27.1512 9.23114 27.1512 9.23114 27.1512C9.34489 27.0025 9.46739 26.8625 9.58989 26.7312C9.58989 26.7225 9.58989 26.7225 9.58989 26.7225C9.94864 26.3375 10.3161 25.97 10.7186 25.6287C10.8586 25.515 10.9899 25.4012 11.1386 25.2875C11.1649 25.2612 11.1911 25.2437 11.2261 25.2175C13.1949 23.7125 15.6536 22.8025 18.3049 22.8025C21.3149 22.8025 24.0536 23.9312 26.1274 25.7862C27.1249 26.6875 27.9736 27.7637 28.6124 28.9625C28.6649 29.05 28.7174 29.1462 28.7611 29.2425C28.8399 29.4 28.9186 29.5662 28.9886 29.7412C29.2774 30.3712 29.5049 31.0362 29.6624 31.7187C29.6799 31.7887 29.6974 31.8587 29.7149 31.9287C29.7849 32.2525 29.8461 32.585 29.8899 32.9175C29.9599 33.4337 29.9949 33.9587 29.9949 34.4925Z" fill="#FF9800"/>
<path d="M28.1924 34.4924C28.1924 34.6674 28.1837 34.8599 28.1749 35.0612C28.1574 35.3849 28.1312 35.7349 28.0874 36.0937C28.0699 36.3124 28.0349 36.5312 27.9999 36.7499H23.2049L22.2774 36.6012L18.6549 36.0237L18.1387 35.9449L16.9574 35.7524C16.4412 35.7524 15.3212 35.9799 14.1399 36.1987C13.5187 36.3124 12.8887 36.4349 12.3199 36.5137C12.2499 36.5224 12.1799 36.5312 12.1187 36.5399H12.1099C11.4974 36.4087 10.9024 36.2074 10.3424 35.9449C10.1674 35.8662 9.99244 35.7787 9.81744 35.6824C9.32744 35.4112 8.85494 35.0874 8.42619 34.7287C8.41744 34.6237 8.40869 34.5362 8.40869 34.4924C8.40869 34.2649 8.41744 34.0462 8.43494 33.8274C8.46994 33.2674 8.54869 32.7249 8.67119 32.1999C8.86369 31.4037 9.14369 30.6337 9.51994 29.9249C9.58994 29.7762 9.66869 29.6274 9.75619 29.4874C9.79119 29.4174 9.83494 29.3562 9.86994 29.2862C10.0274 29.0324 10.2024 28.7874 10.3774 28.5424C10.7449 28.0612 11.1562 27.6062 11.5937 27.1949C11.6024 27.1949 11.6024 27.1949 11.6024 27.1949C11.6374 27.1599 11.6724 27.1249 11.7074 27.0987C11.7512 27.0637 11.7862 27.0199 11.8299 26.9937C12.0049 26.8362 12.1799 26.6962 12.3637 26.5649C12.3637 26.5562 12.3724 26.5562 12.3724 26.5562C14.0262 25.3224 16.0737 24.5962 18.3049 24.5962C20.0374 24.5962 21.6474 25.0337 23.0562 25.8037H23.0649C24.2724 26.4687 25.3224 27.3699 26.1537 28.4549C26.4774 28.8749 26.7662 29.3212 27.0112 29.7937H27.0199C27.0637 29.8812 27.1074 29.9687 27.1512 30.0562C27.4137 30.5724 27.6237 31.1149 27.7812 31.6749H27.7899C27.7987 31.7187 27.8162 31.7624 27.8249 31.8062C27.9299 32.1824 28.0174 32.5674 28.0787 32.9612C28.0874 33.0399 28.0962 33.1274 28.1049 33.2062C28.1662 33.6262 28.1924 34.0549 28.1924 34.4924Z" fill="#FFC107"/>
<path d="M26.3987 34.3963C26.3987 34.5363 26.3987 34.6851 26.3812 34.8251V34.8338C26.3812 34.8426 26.3812 34.8426 26.3812 34.8426C26.3637 35.4726 26.2762 36.0938 26.1362 36.6538C26.1362 36.6888 26.1274 36.7151 26.1099 36.7501H22.0237L18.6549 36.0238L18.2087 35.9276L18.1387 35.9451L14.4024 36.7151L14.2362 36.7501H13.9999C13.4399 36.7501 12.8887 36.6976 12.3549 36.5926C12.2762 36.5751 12.1974 36.5576 12.1187 36.5401H12.1099C11.4974 36.4088 10.9024 36.2076 10.3424 35.9451C10.3249 35.8488 10.3074 35.7526 10.2987 35.6563C10.2374 35.2801 10.2112 34.8863 10.2112 34.4926C10.2112 34.3438 10.2112 34.1951 10.2199 34.0463C10.2462 33.5738 10.3162 33.1101 10.4212 32.6638C10.4912 32.3313 10.5874 32.0076 10.7012 31.7013C10.7974 31.4301 10.9112 31.1676 11.0337 30.9138C11.1387 30.6951 11.2612 30.4851 11.3837 30.2751C11.5062 30.0738 11.6374 29.8813 11.7774 29.6888C12.1274 29.2076 12.5387 28.7613 12.9937 28.3676C13.2562 28.1401 13.5449 27.9213 13.8424 27.7288C15.1199 26.8888 16.6512 26.3988 18.3049 26.3988C18.6287 26.3988 18.9437 26.4163 19.2499 26.4601H19.2674C20.2037 26.5651 21.0787 26.8276 21.8837 27.2213C21.8924 27.2213 21.8924 27.2213 21.8924 27.2213C23.1612 27.8426 24.2374 28.7788 25.0249 29.9338C25.1562 30.1263 25.2874 30.3363 25.4012 30.5463C25.4974 30.7126 25.5849 30.8876 25.6637 31.0626C25.7862 31.3338 25.8999 31.6226 25.9962 31.9113H26.0049C26.1012 32.2351 26.1887 32.5588 26.2499 32.9001V32.9088C26.3462 33.3901 26.3987 33.8888 26.3987 34.3963Z" fill="#FFD54F"/>
<path d="M24.5961 34.58V34.6063C24.5961 35.1225 24.5349 35.63 24.4124 36.1288C24.3686 36.3388 24.3074 36.5488 24.2286 36.75H20.3086L18.3049 36.1988L16.3011 36.75H13.9999C13.4399 36.75 12.8886 36.6975 12.3549 36.5925C12.3374 36.5663 12.3286 36.54 12.3199 36.5138C12.1974 36.1375 12.1011 35.7613 12.0574 35.3675C12.0224 35.1138 12.0049 34.8513 12.0049 34.58C12.0049 34.475 12.0049 34.3613 12.0224 34.2563C12.0311 33.845 12.0924 33.4425 12.1974 33.0575C12.2499 32.795 12.3286 32.5413 12.4336 32.2963C12.4686 32.1738 12.5211 32.06 12.5824 31.9463C12.7136 31.6488 12.8711 31.36 13.0461 31.08C13.2386 30.8 13.4486 30.5375 13.6849 30.2925C13.9649 29.9775 14.2799 29.6888 14.6386 29.4525C15.2511 29.0063 15.9511 28.6738 16.7124 28.49C17.2199 28.35 17.7536 28.28 18.3049 28.28C20.0549 28.28 21.6211 28.98 22.7586 30.1088C22.8024 30.1525 22.8549 30.205 22.8986 30.2663H22.9074C23.0299 30.3975 23.1436 30.5288 23.2574 30.6775C23.5811 31.0888 23.8524 31.535 24.0624 32.025C24.1674 32.2525 24.2549 32.4888 24.3249 32.7338C24.3336 32.7688 24.3424 32.795 24.3511 32.83C24.4736 33.2588 24.5524 33.705 24.5699 34.1688C24.5874 34.3 24.5961 34.44 24.5961 34.58Z" fill="#FFE082"/>
<path d="M22.8026 34.58C22.8026 34.9388 22.7589 35.28 22.6626 35.6038C22.5751 35.9538 22.4439 36.2863 22.2776 36.6013C22.2514 36.6538 22.1901 36.75 22.1901 36.75H14.4201C14.4114 36.7413 14.4026 36.7238 14.4026 36.715C14.2976 36.5488 14.2101 36.3825 14.1401 36.1988C13.9651 35.7963 13.8601 35.3588 13.8251 34.9038C13.8076 34.7988 13.8076 34.685 13.8076 34.58C13.8076 34.5275 13.8076 34.4663 13.8164 34.4138C13.8251 34.0288 13.8776 33.6613 13.9826 33.32C14.0701 33.005 14.1839 32.7163 14.3326 32.4363C14.3326 32.4363 14.3414 32.4275 14.3414 32.4188C14.4464 32.235 14.5601 32.0513 14.6914 31.8763C15.1201 31.2988 15.6889 30.8263 16.3451 30.52C16.3539 30.52 16.3539 30.52 16.3539 30.52C16.5639 30.415 16.7826 30.3275 17.0101 30.2663C17.0101 30.2663 17.0101 30.2663 17.0189 30.2663C17.4214 30.1438 17.8589 30.0825 18.3051 30.0825C18.8214 30.0825 19.3201 30.1613 19.7751 30.3275C19.9414 30.3713 20.0989 30.4413 20.2564 30.52C20.2564 30.52 20.2564 30.52 20.2651 30.52C21.0176 30.8788 21.6564 31.4388 22.0939 32.1388C22.1814 32.27 22.2601 32.41 22.3301 32.5588C22.3651 32.62 22.4001 32.69 22.4264 32.7513C22.6276 33.2063 22.7501 33.705 22.7851 34.23C22.7939 34.2738 22.7939 34.3175 22.7939 34.37C22.8026 34.44 22.8026 34.51 22.8026 34.58Z" fill="#FFECB3"/>
<path d="M26.25 9.625H15.75C12.3375 9.625 9.625 12.3375 9.625 15.75V26.25C9.625 29.6625 12.3375 32.375 15.75 32.375H26.25C29.6625 32.375 32.375 29.6625 32.375 26.25V15.75C32.375 12.3375 29.6625 9.625 26.25 9.625Z" stroke="white" stroke-width="4" stroke-miterlimit="10" stroke-linecap="round" stroke-linejoin="round"/>
<path d="M27.125 14.875C27.6083 14.875 28 14.4832 28 14C28 13.5168 27.6083 13.125 27.125 13.125C26.6418 13.125 26.25 13.5168 26.25 14C26.25 14.4832 26.6418 14.875 27.125 14.875Z" fill="white"/>
<path d="M21 26.25C23.8995 26.25 26.25 23.8995 26.25 21C26.25 18.1005 23.8995 15.75 21 15.75C18.1005 15.75 15.75 18.1005 15.75 21C15.75 23.8995 18.1005 26.25 21 26.25Z" stroke="white" stroke-width="4" stroke-miterlimit="10" stroke-linecap="round" stroke-linejoin="round"/>
</svg>
