<svg width="41" height="41" viewBox="0 0 41 41" fill="none" xmlns="http://www.w3.org/2000/svg">
<path d="M35.875 31.6042C35.875 33.9634 33.9634 35.875 31.6042 35.875H9.39583C7.03748 35.875 5.125 33.9634 5.125 31.6042V9.39583C5.125 7.03663 7.03748 5.125 9.39583 5.125H31.6042C33.9634 5.125 35.875 7.03663 35.875 9.39583V31.6042Z" fill="#0288D1"/>
<path d="M10.25 16.2292H14.5208V30.75H10.25V16.2292ZM12.3726 14.5208H12.3487C11.0743 14.5208 10.25 13.571 10.25 12.3846C10.25 11.1725 11.0999 10.25 12.3974 10.25C13.6966 10.25 14.4969 11.1725 14.5208 12.3846C14.5208 13.5701 13.6966 14.5208 12.3726 14.5208ZM30.75 30.75H26.4792V22.9779C26.4792 21.1005 25.4328 19.8192 23.7527 19.8192C22.4706 19.8192 21.777 20.6836 21.4404 21.519C21.3174 21.818 21.3542 22.6448 21.3542 23.0625V30.75H17.0833V16.2292H21.3542V18.4637C21.97 17.5104 22.9344 16.2292 25.4012 16.2292C28.4574 16.2292 30.7491 18.151 30.7491 22.4424L30.75 30.75Z" fill="white"/>
</svg>
