<svg width="54" height="54" viewBox="0 0 54 54" fill="none" xmlns="http://www.w3.org/2000/svg">
<path d="M47.25 13.9826C45.7616 14.6419 44.1607 15.0817 42.4721 15.2899C44.1888 14.2706 45.5096 12.645 46.1295 10.7246C44.523 11.6662 42.7432 12.3581 40.8498 12.7226C39.3378 11.1195 37.1812 10.125 34.7917 10.125C30.2017 10.125 26.4813 13.8127 26.4813 18.36C26.4813 19.0035 26.5567 19.6301 26.6985 20.2387C19.7932 19.8923 13.6687 16.6095 9.57146 11.628C8.85146 12.8453 8.44646 14.2706 8.44646 15.7748C8.44646 18.6334 9.91008 21.15 12.1421 22.6327C10.7797 22.5911 9.49721 22.212 8.37446 21.6045C8.37446 21.6293 8.37446 21.6664 8.37446 21.7013C8.37446 25.6961 11.2398 29.0228 15.0378 29.7799C14.3437 29.97 13.6102 30.0757 12.8542 30.0757C12.3176 30.0757 11.7945 30.015 11.2882 29.9239C12.3457 33.1886 15.4136 35.5747 19.0485 35.6456C16.2045 37.8506 12.6225 39.1714 8.72771 39.1714C8.05496 39.1714 7.39683 39.1331 6.74658 39.0544C10.4265 41.3843 14.796 42.75 19.4861 42.75C34.7692 42.75 43.1302 30.1995 43.1302 19.3118C43.1302 18.9551 43.119 18.5996 43.1021 18.2486C44.7333 17.0966 46.1396 15.6431 47.25 13.9826Z" fill="#03A9F4"/>
</svg>
